# xmcd
#
# Track frame offsets:
#	150
#	9471
#	18428
#	29793
#	37357
#	47074
#	63985
#	85141
#	101849
#	117513
#	132614
#	150540
#	163979
#
# Disc length: 2326 seconds
#
# Revision: 0
# Processed by: cddbd v1.5.1PL0 Copyright (c) Steve Scherf et al.
# Submitted via: audiograbber 1.83.01
#
DISCID=b909140d
DTITLE=Holy Voices - Golden Hits 2
DYEAR=1900
DGENRE=Gospel
TTITLE0=You're gonna need somebody
TTITLE1=Old time religion
TTITLE2=Burying ground
TTITLE3=It's me, Oh Lord
TTITLE4=Joshua Fit the battle of Jericho
TTITLE5=Yield not into temptation
TTITLE6=Nobody knows the trouble I' ve seen
TTITLE7=Let my people go
TTITLE8=Steal away
TTITLE9=Said he would
TTITLE10=There is a green hill
TTITLE11=To my father's house
TTITLE12=Help me lift him
EXTD=
EXTT0=
EXTT1=
EXTT2=
EXTT3=
EXTT4=
EXTT5=
EXTT6=
EXTT7=
EXTT8=
EXTT9=
EXTT10=
EXTT11=
EXTT12=
PLAYORDER=
